<svg preserveAspectRatio="none" width="100%" height="100%" overflow="visible" style="display: block;" viewBox="0 0 1918 1080" fill="none" xmlns="http://www.w3.org/2000/svg">
<g id="Group 8">
<line id="Line 1" x1="1.00005" y1="4.3715e-08" x2="1" y2="1080" stroke="var(--stroke-0, #4A6BFF)" stroke-opacity="0.2" stroke-width="2"/>
<line id="Line 2" x1="65.1277" y1="4.49876e-08" x2="65.1276" y2="1080" stroke="var(--stroke-0, #4A6BFF)" stroke-opacity="0.2" stroke-width="2"/>
<line id="Line 3" x1="129.255" y1="4.49876e-08" x2="129.255" y2="1080" stroke="var(--stroke-0, #4A6BFF)" stroke-opacity="0.2" stroke-width="2"/>
<line id="Line 4" x1="193.383" y1="4.49876e-08" x2="193.383" y2="1080" stroke="var(--stroke-0, #4A6BFF)" stroke-opacity="0.2" stroke-width="2"/>
<line id="Line 5" x1="257.511" y1="4.49876e-08" x2="257.511" y2="1080" stroke="var(--stroke-0, #4A6BFF)" stroke-opacity="0.2" stroke-width="2"/>
<line id="Line 6" x1="321.638" y1="4.49876e-08" x2="321.638" y2="1080" stroke="var(--stroke-0, #4A6BFF)" stroke-opacity="0.2" stroke-width="2"/>
<line id="Line 7" x1="385.766" y1="4.49876e-08" x2="385.766" y2="1080" stroke="var(--stroke-0, #4A6BFF)" stroke-opacity="0.2" stroke-width="2"/>
<line id="Line 8" x1="449.894" y1="4.49876e-08" x2="449.894" y2="1080" stroke="var(--stroke-0, #4A6BFF)" stroke-opacity="0.2" stroke-width="2"/>
<line id="Line 9" x1="514.021" y1="4.49876e-08" x2="514.021" y2="1080" stroke="var(--stroke-0, #4A6BFF)" stroke-opacity="0.2" stroke-width="2"/>
<line id="Line 10" x1="578.149" y1="4.49876e-08" x2="578.149" y2="1080" stroke="var(--stroke-0, #4A6BFF)" stroke-opacity="0.2" stroke-width="2"/>
<line id="Line 11" x1="642.277" y1="4.49876e-08" x2="642.277" y2="1080" stroke="var(--stroke-0, #4A6BFF)" stroke-opacity="0.2" stroke-width="2"/>
<line id="Line 12" x1="706.404" y1="4.49876e-08" x2="706.404" y2="1080" stroke="var(--stroke-0, #4A6BFF)" stroke-opacity="0.2" stroke-width="2"/>
<line id="Line 13" x1="770.532" y1="4.49876e-08" x2="770.532" y2="1080" stroke="var(--stroke-0, #4A6BFF)" stroke-opacity="0.2" stroke-width="2"/>
<line id="Line 14" x1="834.66" y1="4.49876e-08" x2="834.659" y2="1080" stroke="var(--stroke-0, #4A6BFF)" stroke-opacity="0.2" stroke-width="2"/>
<line id="Line 30" x1="4.72083e-05" y1="924" x2="1918" y2="924" stroke="var(--stroke-0, #4A6BFF)" stroke-opacity="0.2" stroke-width="2"/>
<line id="Line 44" x1="4.72083e-05" y1="988" x2="1918" y2="988" stroke="var(--stroke-0, #4A6BFF)" stroke-opacity="0.2" stroke-width="2"/>
<line id="Line 45" x1="4.72083e-05" y1="1052" x2="1918" y2="1052" stroke="var(--stroke-0, #4A6BFF)" stroke-opacity="0.2" stroke-width="2"/>
<line id="Line 31" x1="4.72083e-05" y1="858" x2="1918" y2="858" stroke="var(--stroke-0, #4A6BFF)" stroke-opacity="0.2" stroke-width="2"/>
<line id="Line 32" x1="4.72083e-05" y1="792" x2="1918" y2="792" stroke="var(--stroke-0, #4A6BFF)" stroke-opacity="0.2" stroke-width="2"/>
<line id="Line 33" x1="4.72083e-05" y1="726" x2="1918" y2="726" stroke="var(--stroke-0, #4A6BFF)" stroke-opacity="0.2" stroke-width="2"/>
<line id="Line 34" x1="4.72083e-05" y1="660" x2="1918" y2="660" stroke="var(--stroke-0, #4A6BFF)" stroke-opacity="0.2" stroke-width="2"/>
<line id="Line 35" x1="4.72083e-05" y1="594" x2="1918" y2="594" stroke="var(--stroke-0, #4A6BFF)" stroke-opacity="0.2" stroke-width="2"/>
<line id="Line 36" x1="4.72083e-05" y1="528" x2="1918" y2="528" stroke="var(--stroke-0, #4A6BFF)" stroke-opacity="0.2" stroke-width="2"/>
<line id="Line 37" x1="4.72083e-05" y1="462" x2="1918" y2="462" stroke="var(--stroke-0, #4A6BFF)" stroke-opacity="0.2" stroke-width="2"/>
<line id="Line 38" x1="4.72083e-05" y1="396" x2="1918" y2="396" stroke="var(--stroke-0, #4A6BFF)" stroke-opacity="0.2" stroke-width="2"/>
<line id="Line 39" x1="4.72083e-05" y1="330" x2="1918" y2="330" stroke="var(--stroke-0, #4A6BFF)" stroke-opacity="0.2" stroke-width="2"/>
<line id="Line 40" x1="4.72083e-05" y1="264" x2="1918" y2="264" stroke="var(--stroke-0, #4A6BFF)" stroke-opacity="0.2" stroke-width="2"/>
<line id="Line 41" x1="4.72083e-05" y1="198" x2="1918" y2="198" stroke="var(--stroke-0, #4A6BFF)" stroke-opacity="0.2" stroke-width="2"/>
<line id="Line 42" x1="4.72083e-05" y1="132" x2="1918" y2="132" stroke="var(--stroke-0, #4A6BFF)" stroke-opacity="0.2" stroke-width="2"/>
<line id="Line 43" x1="4.72083e-05" y1="66" x2="1918" y2="66" stroke="var(--stroke-0, #4A6BFF)" stroke-opacity="0.2" stroke-width="2"/>
<line id="Line 15" x1="898.787" y1="4.49876e-08" x2="898.787" y2="1080" stroke="var(--stroke-0, #4A6BFF)" stroke-opacity="0.2" stroke-width="2"/>
<line id="Line 16" x1="962.915" y1="4.49876e-08" x2="962.915" y2="1080" stroke="var(--stroke-0, #4A6BFF)" stroke-opacity="0.2" stroke-width="2"/>
<line id="Line 17" x1="1027.04" y1="4.49876e-08" x2="1027.04" y2="1080" stroke="var(--stroke-0, #4A6BFF)" stroke-opacity="0.2" stroke-width="2"/>
<line id="Line 18" x1="1091.17" y1="4.49876e-08" x2="1091.17" y2="1080" stroke="var(--stroke-0, #4A6BFF)" stroke-opacity="0.2" stroke-width="2"/>
<line id="Line 19" x1="1155.3" y1="4.49876e-08" x2="1155.3" y2="1080" stroke="var(--stroke-0, #4A6BFF)" stroke-opacity="0.2" stroke-width="2"/>
<line id="Line 20" x1="1219.43" y1="4.49876e-08" x2="1219.43" y2="1080" stroke="var(--stroke-0, #4A6BFF)" stroke-opacity="0.2" stroke-width="2"/>
<line id="Line 21" x1="1283.55" y1="4.49876e-08" x2="1283.55" y2="1080" stroke="var(--stroke-0, #4A6BFF)" stroke-opacity="0.2" stroke-width="2"/>
<line id="Line 22" x1="1347.68" y1="4.49876e-08" x2="1347.68" y2="1080" stroke="var(--stroke-0, #4A6BFF)" stroke-opacity="0.2" stroke-width="2"/>
<line id="Line 23" x1="1411.81" y1="4.49876e-08" x2="1411.81" y2="1080" stroke="var(--stroke-0, #4A6BFF)" stroke-opacity="0.2" stroke-width="2"/>
<line id="Line 24" x1="1475.94" y1="4.49876e-08" x2="1475.94" y2="1080" stroke="var(--stroke-0, #4A6BFF)" stroke-opacity="0.2" stroke-width="2"/>
<line id="Line 25" x1="1540.06" y1="4.49876e-08" x2="1540.06" y2="1080" stroke="var(--stroke-0, #4A6BFF)" stroke-opacity="0.2" stroke-width="2"/>
<line id="Line 26" x1="1604.19" y1="4.49876e-08" x2="1604.19" y2="1080" stroke="var(--stroke-0, #4A6BFF)" stroke-opacity="0.2" stroke-width="2"/>
<line id="Line 27" x1="1668.32" y1="4.49876e-08" x2="1668.32" y2="1080" stroke="var(--stroke-0, #4A6BFF)" stroke-opacity="0.2" stroke-width="2"/>
<line id="Line 28" x1="1732.45" y1="4.49876e-08" x2="1732.45" y2="1080" stroke="var(--stroke-0, #4A6BFF)" stroke-opacity="0.2" stroke-width="2"/>
<line id="Line 29" x1="1796.57" y1="4.49876e-08" x2="1796.57" y2="1080" stroke="var(--stroke-0, #4A6BFF)" stroke-opacity="0.2" stroke-width="2"/>
</g>
</svg>
