<svg preserveAspectRatio="none" width="100%" height="100%" overflow="visible" style="display: block;" viewBox="0 0 1974 1080" fill="none" xmlns="http://www.w3.org/2000/svg">
<g id="Grd">
<line id="Line 1" x1="1.00005" y1="4.37114e-08" x2="1" y2="1080" stroke="var(--stroke-0, #4A6BFF)" stroke-opacity="0.27" stroke-width="2"/>
<line id="Line 2" x1="67" y1="4.37114e-08" x2="67" y2="1080" stroke="var(--stroke-0, #4A6BFF)" stroke-opacity="0.27" stroke-width="2"/>
<line id="Line 3" x1="133" y1="4.37114e-08" x2="133" y2="1080" stroke="var(--stroke-0, #4A6BFF)" stroke-opacity="0.27" stroke-width="2"/>
<line id="Line 4" x1="199" y1="4.37114e-08" x2="199" y2="1080" stroke="var(--stroke-0, #4A6BFF)" stroke-opacity="0.27" stroke-width="2"/>
<line id="Line 5" x1="265" y1="4.37114e-08" x2="265" y2="1080" stroke="var(--stroke-0, #4A6BFF)" stroke-opacity="0.27" stroke-width="2"/>
<line id="Line 6" x1="331" y1="4.37114e-08" x2="331" y2="1080" stroke="var(--stroke-0, #4A6BFF)" stroke-opacity="0.27" stroke-width="2"/>
<line id="Line 7" x1="397" y1="4.37114e-08" x2="397" y2="1080" stroke="var(--stroke-0, #4A6BFF)" stroke-opacity="0.27" stroke-width="2"/>
<line id="Line 8" x1="463" y1="4.37114e-08" x2="463" y2="1080" stroke="var(--stroke-0, #4A6BFF)" stroke-opacity="0.27" stroke-width="2"/>
<line id="Line 9" x1="529" y1="4.37114e-08" x2="529" y2="1080" stroke="var(--stroke-0, #4A6BFF)" stroke-opacity="0.27" stroke-width="2"/>
<line id="Line 10" x1="595" y1="4.37114e-08" x2="595" y2="1080" stroke="var(--stroke-0, #4A6BFF)" stroke-opacity="0.27" stroke-width="2"/>
<line id="Line 11" x1="661" y1="4.37114e-08" x2="661" y2="1080" stroke="var(--stroke-0, #4A6BFF)" stroke-opacity="0.27" stroke-width="2"/>
<line id="Line 12" x1="727" y1="4.37114e-08" x2="727" y2="1080" stroke="var(--stroke-0, #4A6BFF)" stroke-opacity="0.27" stroke-width="2"/>
<line id="Line 13" x1="793" y1="4.37114e-08" x2="793" y2="1080" stroke="var(--stroke-0, #4A6BFF)" stroke-opacity="0.27" stroke-width="2"/>
<line id="Line 14" x1="859" y1="4.37114e-08" x2="859" y2="1080" stroke="var(--stroke-0, #4A6BFF)" stroke-opacity="0.27" stroke-width="2"/>
<line id="Line 30" x1="4.72083e-05" y1="924" x2="1974" y2="924" stroke="var(--stroke-0, #4A6BFF)" stroke-opacity="0.27" stroke-width="2"/>
<line id="Line 44" x1="4.72083e-05" y1="988" x2="1974" y2="988" stroke="var(--stroke-0, #4A6BFF)" stroke-opacity="0.27" stroke-width="2"/>
<line id="Line 45" x1="4.72083e-05" y1="1052" x2="1974" y2="1052" stroke="var(--stroke-0, #4A6BFF)" stroke-opacity="0.27" stroke-width="2"/>
<line id="Line 31" x1="4.72083e-05" y1="858" x2="1974" y2="858" stroke="var(--stroke-0, #4A6BFF)" stroke-opacity="0.27" stroke-width="2"/>
<line id="Line 32" x1="4.72083e-05" y1="792" x2="1974" y2="792" stroke="var(--stroke-0, #4A6BFF)" stroke-opacity="0.27" stroke-width="2"/>
<line id="Line 33" x1="4.72083e-05" y1="726" x2="1974" y2="726" stroke="var(--stroke-0, #4A6BFF)" stroke-opacity="0.27" stroke-width="2"/>
<line id="Line 34" x1="4.72083e-05" y1="660" x2="1974" y2="660" stroke="var(--stroke-0, #4A6BFF)" stroke-opacity="0.27" stroke-width="2"/>
<line id="Line 35" x1="4.72083e-05" y1="594" x2="1974" y2="594" stroke="var(--stroke-0, #4A6BFF)" stroke-opacity="0.27" stroke-width="2"/>
<line id="Line 36" x1="4.72083e-05" y1="528" x2="1974" y2="528" stroke="var(--stroke-0, #4A6BFF)" stroke-opacity="0.27" stroke-width="2"/>
<line id="Line 37" x1="4.72083e-05" y1="462" x2="1974" y2="462" stroke="var(--stroke-0, #4A6BFF)" stroke-opacity="0.27" stroke-width="2"/>
<line id="Line 38" x1="4.72083e-05" y1="396" x2="1974" y2="396" stroke="var(--stroke-0, #4A6BFF)" stroke-opacity="0.27" stroke-width="2"/>
<line id="Line 39" x1="4.72083e-05" y1="330" x2="1974" y2="330" stroke="var(--stroke-0, #4A6BFF)" stroke-opacity="0.27" stroke-width="2"/>
<line id="Line 40" x1="4.72083e-05" y1="264" x2="1974" y2="264" stroke="var(--stroke-0, #4A6BFF)" stroke-opacity="0.27" stroke-width="2"/>
<line id="Line 41" x1="4.72083e-05" y1="198" x2="1974" y2="198" stroke="var(--stroke-0, #4A6BFF)" stroke-opacity="0.27" stroke-width="2"/>
<line id="Line 42" x1="4.72083e-05" y1="132" x2="1974" y2="132" stroke="var(--stroke-0, #4A6BFF)" stroke-opacity="0.27" stroke-width="2"/>
<line id="Line 43" x1="4.72083e-05" y1="66" x2="1974" y2="66" stroke="var(--stroke-0, #4A6BFF)" stroke-opacity="0.27" stroke-width="2"/>
<line id="Line 15" x1="925" y1="4.37114e-08" x2="925" y2="1080" stroke="var(--stroke-0, #4A6BFF)" stroke-opacity="0.27" stroke-width="2"/>
<line id="Line 16" x1="991" y1="4.37114e-08" x2="991" y2="1080" stroke="var(--stroke-0, #4A6BFF)" stroke-opacity="0.27" stroke-width="2"/>
<line id="Line 17" x1="1057" y1="4.37114e-08" x2="1057" y2="1080" stroke="var(--stroke-0, #4A6BFF)" stroke-opacity="0.27" stroke-width="2"/>
<line id="Line 18" x1="1123" y1="4.37114e-08" x2="1123" y2="1080" stroke="var(--stroke-0, #4A6BFF)" stroke-opacity="0.27" stroke-width="2"/>
<line id="Line 19" x1="1189" y1="4.37114e-08" x2="1189" y2="1080" stroke="var(--stroke-0, #4A6BFF)" stroke-opacity="0.27" stroke-width="2"/>
<line id="Line 20" x1="1255" y1="4.37114e-08" x2="1255" y2="1080" stroke="var(--stroke-0, #4A6BFF)" stroke-opacity="0.27" stroke-width="2"/>
<line id="Line 21" x1="1321" y1="4.37114e-08" x2="1321" y2="1080" stroke="var(--stroke-0, #4A6BFF)" stroke-opacity="0.27" stroke-width="2"/>
<line id="Line 22" x1="1387" y1="4.37114e-08" x2="1387" y2="1080" stroke="var(--stroke-0, #4A6BFF)" stroke-opacity="0.27" stroke-width="2"/>
<line id="Line 23" x1="1453" y1="4.37114e-08" x2="1453" y2="1080" stroke="var(--stroke-0, #4A6BFF)" stroke-opacity="0.27" stroke-width="2"/>
<line id="Line 24" x1="1519" y1="4.37114e-08" x2="1519" y2="1080" stroke="var(--stroke-0, #4A6BFF)" stroke-opacity="0.27" stroke-width="2"/>
<line id="Line 25" x1="1585" y1="4.37114e-08" x2="1585" y2="1080" stroke="var(--stroke-0, #4A6BFF)" stroke-opacity="0.27" stroke-width="2"/>
<line id="Line 26" x1="1651" y1="4.37114e-08" x2="1651" y2="1080" stroke="var(--stroke-0, #4A6BFF)" stroke-opacity="0.27" stroke-width="2"/>
<line id="Line 27" x1="1717" y1="4.37114e-08" x2="1717" y2="1080" stroke="var(--stroke-0, #4A6BFF)" stroke-opacity="0.27" stroke-width="2"/>
<line id="Line 28" x1="1783" y1="4.37114e-08" x2="1783" y2="1080" stroke="var(--stroke-0, #4A6BFF)" stroke-opacity="0.27" stroke-width="2"/>
<line id="Line 29" x1="1849" y1="4.37114e-08" x2="1849" y2="1080" stroke="var(--stroke-0, #4A6BFF)" stroke-opacity="0.27" stroke-width="2"/>
</g>
</svg>
