<svg preserveAspectRatio="none" width="100%" height="100%" overflow="visible" style="display: block;" viewBox="0 0 1815.33 819.667" fill="none" xmlns="http://www.w3.org/2000/svg">
<g id="Group 42">
<path id="Line 94" d="M5.33337 0C2.38785 -1.28753e-07 3.54913e-05 2.38781 3.53625e-05 5.33333C3.52338e-05 8.27885 2.38785 10.6667 5.33337 10.6667C8.27889 10.6667 10.6667 8.27885 10.6667 5.33333C10.6667 2.38781 8.27889 1.28753e-07 5.33337 0ZM5.33333 809C2.38781 809 1.28753e-07 811.388 0 814.333C-1.2875e-07 817.279 2.38781 819.667 5.33333 819.667C8.27885 819.667 10.6667 817.279 10.6667 814.333C10.6667 811.388 8.27885 809 5.33333 809ZM5.33337 5.33333L4.33337 5.33333L4.33337 10.3896L5.33337 10.3896L6.33337 10.3896L6.33337 5.33333L5.33337 5.33333ZM5.33337 20.5021L4.33337 20.5021L4.33337 30.6146L5.33337 30.6146L6.33337 30.6146L6.33337 20.5021L5.33337 20.5021ZM5.33337 40.7271L4.33337 40.7271L4.33337 50.8396L5.33337 50.8396L6.33337 50.8396L6.33337 40.7271L5.33337 40.7271ZM5.33337 60.9521L4.33337 60.9521L4.33337 71.0646L5.33337 71.0646L6.33337 71.0646L6.33337 60.9521L5.33337 60.9521ZM5.33337 81.1771L4.33337 81.1771L4.33337 91.2896L5.33337 91.2896L6.33337 91.2896L6.33337 81.1771L5.33337 81.1771ZM5.33336 101.402L4.33336 101.402L4.33336 111.515L5.33336 111.515L6.33336 111.515L6.33336 101.402L5.33336 101.402ZM5.33336 121.627L4.33336 121.627L4.33336 131.74L5.33336 131.74L6.33336 131.74L6.33336 121.627L5.33336 121.627ZM5.33336 141.852L4.33336 141.852L4.33336 151.965L5.33336 151.965L6.33336 151.965L6.33336 141.852L5.33336 141.852ZM5.33336 162.077L4.33336 162.077L4.33336 172.19L5.33336 172.19L6.33336 172.19L6.33336 162.077L5.33336 162.077ZM5.33336 182.302L4.33336 182.302L4.33336 192.415L5.33336 192.415L6.33336 192.415L6.33336 182.302L5.33336 182.302ZM5.33336 202.527L4.33336 202.527L4.33336 212.64L5.33336 212.64L6.33336 212.64L6.33336 202.527L5.33336 202.527ZM5.33336 222.752L4.33336 222.752L4.33336 232.865L5.33336 232.865L6.33336 232.865L6.33336 222.752L5.33336 222.752ZM5.33336 242.977L4.33336 242.977L4.33336 253.09L5.33336 253.09L6.33336 253.09L6.33336 242.977L5.33336 242.977ZM5.33336 263.202L4.33336 263.202L4.33336 273.315L5.33336 273.315L6.33336 273.315L6.33336 263.202L5.33336 263.202ZM5.33336 283.427L4.33336 283.427L4.33336 293.54L5.33336 293.54L6.33336 293.54L6.33336 283.427L5.33336 283.427ZM5.33336 303.652L4.33336 303.652L4.33336 313.765L5.33336 313.765L6.33336 313.765L6.33336 303.652L5.33336 303.652ZM5.33335 323.877L4.33335 323.877L4.33335 333.99L5.33335 333.99L6.33335 333.99L6.33335 323.877L5.33335 323.877ZM5.33335 344.102L4.33335 344.102L4.33335 354.215L5.33335 354.215L6.33335 354.215L6.33335 344.102L5.33335 344.102ZM5.33335 364.327L4.33335 364.327L4.33335 374.44L5.33335 374.44L6.33335 374.44L6.33335 364.327L5.33335 364.327ZM5.33335 384.552L4.33335 384.552L4.33335 394.664L5.33335 394.664L6.33335 394.664L6.33335 384.552L5.33335 384.552ZM5.33335 404.777L4.33335 404.777L4.33335 414.889L5.33335 414.889L6.33335 414.889L6.33335 404.777L5.33335 404.777ZM5.33335 425.002L4.33335 425.002L4.33335 435.114L5.33335 435.114L6.33335 435.114L6.33335 425.002L5.33335 425.002ZM5.33335 445.227L4.33335 445.227L4.33335 455.339L5.33335 455.339L6.33335 455.339L6.33335 445.227L5.33335 445.227ZM5.33335 465.452L4.33335 465.452L4.33335 475.564L5.33335 475.564L6.33335 475.564L6.33335 465.452L5.33335 465.452ZM5.33335 485.677L4.33335 485.677L4.33335 495.789L5.33335 495.789L6.33335 495.789L6.33335 485.677L5.33335 485.677ZM5.33335 505.902L4.33335 505.902L4.33335 516.014L5.33335 516.014L6.33335 516.014L6.33335 505.902L5.33335 505.902ZM5.33335 526.127L4.33335 526.127L4.33335 536.239L5.33335 536.239L6.33335 536.239L6.33335 526.127L5.33335 526.127ZM5.33335 546.352L4.33335 546.352L4.33334 556.464L5.33334 556.464L6.33334 556.464L6.33335 546.352L5.33335 546.352ZM5.33334 566.577L4.33334 566.577L4.33334 576.689L5.33334 576.689L6.33334 576.689L6.33334 566.577L5.33334 566.577ZM5.33334 586.802L4.33334 586.802L4.33334 596.914L5.33334 596.914L6.33334 596.914L6.33334 586.802L5.33334 586.802ZM5.33334 607.027L4.33334 607.027L4.33334 617.139L5.33334 617.139L6.33334 617.139L6.33334 607.027L5.33334 607.027ZM5.33334 627.252L4.33334 627.252L4.33334 637.364L5.33334 637.364L6.33334 637.364L6.33334 627.252L5.33334 627.252ZM5.33334 647.477L4.33334 647.477L4.33334 657.589L5.33334 657.589L6.33334 657.589L6.33334 647.477L5.33334 647.477ZM5.33334 667.702L4.33334 667.702L4.33334 677.814L5.33334 677.814L6.33334 677.814L6.33334 667.702L5.33334 667.702ZM5.33334 687.927L4.33334 687.927L4.33334 698.039L5.33334 698.039L6.33334 698.039L6.33334 687.927L5.33334 687.927ZM5.33334 708.152L4.33334 708.152L4.33334 718.264L5.33334 718.264L6.33334 718.264L6.33334 708.152L5.33334 708.152ZM5.33334 728.377L4.33334 728.377L4.33334 738.489L5.33334 738.489L6.33334 738.489L6.33334 728.377L5.33334 728.377ZM5.33334 748.602L4.33334 748.602L4.33334 758.714L5.33334 758.714L6.33334 758.714L6.33334 748.602L5.33334 748.602ZM5.33334 768.827L4.33334 768.827L4.33334 778.939L5.33334 778.939L6.33334 778.939L6.33334 768.827L5.33334 768.827ZM5.33333 789.052L4.33333 789.052L4.33333 799.164L5.33333 799.164L6.33333 799.164L6.33333 789.052L5.33333 789.052ZM5.33333 809.277L4.33333 809.277L4.33333 814.333L5.33333 814.333L6.33333 814.333L6.33333 809.277L5.33333 809.277Z" fill="var(--stroke-0, #7BF12C)"/>
<path id="Vector 18" d="M3.53625e-05 689.333C3.53625e-05 692.279 2.38785 694.667 5.33337 694.667C8.27889 694.667 10.6667 692.279 10.6667 689.333C10.6667 686.388 8.27889 684 5.33337 684C2.38785 684 3.53625e-05 686.388 3.53625e-05 689.333ZM1814.33 689.333V690.333H1815.33V689.333H1814.33ZM1814.33 158.333H1815.33V157.333H1814.33V158.333ZM3.53625e-05 158.333C3.53625e-05 161.279 2.38785 163.667 5.33337 163.667C8.27889 163.667 10.6667 161.279 10.6667 158.333C10.6667 155.388 8.27889 153 5.33337 153C2.38785 153 3.53625e-05 155.388 3.53625e-05 158.333ZM5.33337 158.333V159.333H10.3584V158.333V157.333H5.33337V158.333ZM20.4084 158.333V159.333H30.4584V158.333V157.333H20.4084V158.333ZM40.5084 158.333V159.333H50.5584V158.333V157.333H40.5084V158.333ZM60.6084 158.333V159.333H70.6584V158.333V157.333H60.6084V158.333ZM80.7084 158.333V159.333H90.7584V158.333V157.333H80.7084V158.333ZM100.808 158.333V159.333H110.858V158.333V157.333H100.808V158.333ZM120.908 158.333V159.333H130.958V158.333V157.333H120.908V158.333ZM141.008 158.333V159.333H151.058V158.333V157.333H141.008V158.333ZM161.108 158.333V159.333H171.158V158.333V157.333H161.108V158.333ZM181.208 158.333V159.333H191.258V158.333V157.333H181.208V158.333ZM201.308 158.333V159.333H211.358V158.333V157.333H201.308V158.333ZM221.408 158.333V159.333H231.458V158.333V157.333H221.408V158.333ZM241.508 158.333V159.333H251.558V158.333V157.333H241.508V158.333ZM261.608 158.333V159.333H271.658V158.333V157.333H261.608V158.333ZM281.708 158.333V159.333H291.758V158.333V157.333H281.708V158.333ZM301.808 158.333V159.333H311.858V158.333V157.333H301.808V158.333ZM321.908 158.333V159.333H331.958V158.333V157.333H321.908V158.333ZM342.008 158.333V159.333H352.058V158.333V157.333H342.008V158.333ZM362.108 158.333V159.333H372.158V158.333V157.333H362.108V158.333ZM382.208 158.333V159.333H392.258V158.333V157.333H382.208V158.333ZM402.308 158.333V159.333H412.358V158.333V157.333H402.308V158.333ZM422.408 158.333V159.333H432.458V158.333V157.333H422.408V158.333ZM442.508 158.333V159.333H452.558V158.333V157.333H442.508V158.333ZM462.608 158.333V159.333H472.658V158.333V157.333H462.608V158.333ZM482.708 158.333V159.333H492.758V158.333V157.333H482.708V158.333ZM502.808 158.333V159.333H512.858V158.333V157.333H502.808V158.333ZM522.908 158.333V159.333H532.958V158.333V157.333H522.908V158.333ZM543.008 158.333V159.333H553.058V158.333V157.333H543.008V158.333ZM563.108 158.333V159.333H573.158V158.333V157.333H563.108V158.333ZM583.208 158.333V159.333H593.258V158.333V157.333H583.208V158.333ZM603.308 158.333V159.333H613.358V158.333V157.333H603.308V158.333ZM623.408 158.333V159.333H633.458V158.333V157.333H623.408V158.333ZM643.508 158.333V159.333H653.558V158.333V157.333H643.508V158.333ZM663.608 158.333V159.333H673.658V158.333V157.333H663.608V158.333ZM683.708 158.333V159.333H693.758V158.333V157.333H683.708V158.333ZM703.808 158.333V159.333H713.858V158.333V157.333H703.808V158.333ZM723.908 158.333V159.333H733.958V158.333V157.333H723.908V158.333ZM744.008 158.333V159.333H754.058V158.333V157.333H744.008V158.333ZM764.108 158.333V159.333H774.158V158.333V157.333H764.108V158.333ZM784.208 158.333V159.333H794.258V158.333V157.333H784.208V158.333ZM804.308 158.333V159.333H814.358V158.333V157.333H804.308V158.333ZM824.408 158.333V159.333H834.458V158.333V157.333H824.408V158.333ZM844.508 158.333V159.333H854.558V158.333V157.333H844.508V158.333ZM864.608 158.333V159.333H874.658V158.333V157.333H864.608V158.333ZM884.708 158.333V159.333H894.758V158.333V157.333H884.708V158.333ZM904.808 158.333V159.333H914.858V158.333V157.333H904.808V158.333ZM924.908 158.333V159.333H934.958V158.333V157.333H924.908V158.333ZM945.008 158.333V159.333H955.058V158.333V157.333H945.008V158.333ZM965.108 158.333V159.333H975.158V158.333V157.333H965.108V158.333ZM985.208 158.333V159.333H995.258V158.333V157.333H985.208V158.333ZM1005.31 158.333V159.333H1015.36V158.333V157.333H1005.31V158.333ZM1025.41 158.333V159.333H1035.46V158.333V157.333H1025.41V158.333ZM1045.51 158.333V159.333H1055.56V158.333V157.333H1045.51V158.333ZM1065.61 158.333V159.333H1075.66V158.333V157.333H1065.61V158.333ZM1085.71 158.333V159.333H1095.76V158.333V157.333H1085.71V158.333ZM1105.81 158.333V159.333H1115.86V158.333V157.333H1105.81V158.333ZM1125.91 158.333V159.333H1135.96V158.333V157.333H1125.91V158.333ZM1146.01 158.333V159.333H1156.06V158.333V157.333H1146.01V158.333ZM1166.11 158.333V159.333H1176.16V158.333V157.333H1166.11V158.333ZM1186.21 158.333V159.333H1196.26V158.333V157.333H1186.21V158.333ZM1206.31 158.333V159.333H1216.36V158.333V157.333H1206.31V158.333ZM1226.41 158.333V159.333H1236.46V158.333V157.333H1226.41V158.333ZM1246.51 158.333V159.333H1256.56V158.333V157.333H1246.51V158.333ZM1266.61 158.333V159.333H1276.66V158.333V157.333H1266.61V158.333ZM1286.71 158.333V159.333H1296.76V158.333V157.333H1286.71V158.333ZM1306.81 158.333V159.333H1316.86V158.333V157.333H1306.81V158.333ZM1326.91 158.333V159.333H1336.96V158.333V157.333H1326.91V158.333ZM1347.01 158.333V159.333H1357.06V158.333V157.333H1347.01V158.333ZM1367.11 158.333V159.333H1377.16V158.333V157.333H1367.11V158.333ZM1387.21 158.333V159.333H1397.26V158.333V157.333H1387.21V158.333ZM1407.31 158.333V159.333H1417.36V158.333V157.333H1407.31V158.333ZM1427.41 158.333V159.333H1437.46V158.333V157.333H1427.41V158.333ZM1447.51 158.333V159.333H1457.56V158.333V157.333H1447.51V158.333ZM1467.61 158.333V159.333H1477.66V158.333V157.333H1467.61V158.333ZM1487.71 158.333V159.333H1497.76V158.333V157.333H1487.71V158.333ZM1507.81 158.333V159.333H1517.86V158.333V157.333H1507.81V158.333ZM1527.91 158.333V159.333H1537.96V158.333V157.333H1527.91V158.333ZM1548.01 158.333V159.333H1558.06V158.333V157.333H1548.01V158.333ZM1568.11 158.333V159.333H1578.16V158.333V157.333H1568.11V158.333ZM1588.21 158.333V159.333H1598.26V158.333V157.333H1588.21V158.333ZM1608.31 158.333V159.333H1618.36V158.333V157.333H1608.31V158.333ZM1628.41 158.333V159.333H1638.46V158.333V157.333H1628.41V158.333ZM1648.51 158.333V159.333H1658.56V158.333V157.333H1648.51V158.333ZM1668.61 158.333V159.333H1678.66V158.333V157.333H1668.61V158.333ZM1688.71 158.333V159.333H1698.76V158.333V157.333H1688.71V158.333ZM1708.81 158.333V159.333H1718.86V158.333V157.333H1708.81V158.333ZM1728.91 158.333V159.333H1738.96V158.333V157.333H1728.91V158.333ZM1749.01 158.333V159.333H1759.06V158.333V157.333H1749.01V158.333ZM1769.11 158.333V159.333H1779.16V158.333V157.333H1769.11V158.333ZM1789.21 158.333V159.333H1799.26V158.333V157.333H1789.21V158.333ZM1809.31 158.333V159.333H1814.33V158.333V157.333H1809.31V158.333ZM1814.33 158.333H1813.33V163.25H1814.33H1815.33V158.333H1814.33ZM1814.33 173.083H1813.33V182.917H1814.33H1815.33V173.083H1814.33ZM1814.33 192.75H1813.33V202.583H1814.33H1815.33V192.75H1814.33ZM1814.33 212.417H1813.33V222.25H1814.33H1815.33V212.417H1814.33ZM1814.33 232.083H1813.33V241.917H1814.33H1815.33V232.083H1814.33ZM1814.33 251.75H1813.33V261.583H1814.33H1815.33V251.75H1814.33ZM1814.33 271.417H1813.33V281.25H1814.33H1815.33V271.417H1814.33ZM1814.33 291.083H1813.33V300.917H1814.33H1815.33V291.083H1814.33ZM1814.33 310.75H1813.33V320.583H1814.33H1815.33V310.75H1814.33ZM1814.33 330.417H1813.33V340.25H1814.33H1815.33V330.417H1814.33ZM1814.33 350.083H1813.33V359.917H1814.33H1815.33V350.083H1814.33ZM1814.33 369.75H1813.33V379.583H1814.33H1815.33V369.75H1814.33ZM1814.33 389.417H1813.33V399.25H1814.33H1815.33V389.417H1814.33ZM1814.33 409.083H1813.33V418.917H1814.33H1815.33V409.083H1814.33ZM1814.33 428.75H1813.33V438.583H1814.33H1815.33V428.75H1814.33ZM1814.33 448.417H1813.33V458.25H1814.33H1815.33V448.417H1814.33ZM1814.33 468.083H1813.33V477.917H1814.33H1815.33V468.083H1814.33ZM1814.33 487.75H1813.33V497.583H1814.33H1815.33V487.75H1814.33ZM1814.33 507.417H1813.33V517.25H1814.33H1815.33V507.417H1814.33ZM1814.33 527.083H1813.33V536.917H1814.33H1815.33V527.083H1814.33ZM1814.33 546.75H1813.33V556.583H1814.33H1815.33V546.75H1814.33ZM1814.33 566.417H1813.33V576.25H1814.33H1815.33V566.417H1814.33ZM1814.33 586.083H1813.33V595.917H1814.33H1815.33V586.083H1814.33ZM1814.33 605.75H1813.33V615.583H1814.33H1815.33V605.75H1814.33ZM1814.33 625.417H1813.33V635.25H1814.33H1815.33V625.417H1814.33ZM1814.33 645.084H1813.33V654.917H1814.33H1815.33V645.084H1814.33ZM1814.33 664.75H1813.33V674.584H1814.33H1815.33V664.75H1814.33ZM1814.33 684.417H1813.33V689.333H1814.33H1815.33V684.417H1814.33ZM1814.33 689.333V688.333H1809.31V689.333V690.333H1814.33V689.333ZM1799.26 689.333V688.333H1789.21V689.333V690.333H1799.26V689.333ZM1779.16 689.333V688.333H1769.11V689.333V690.333H1779.16V689.333ZM1759.06 689.333V688.333H1749.01V689.333V690.333H1759.06V689.333ZM1738.96 689.333V688.333H1728.91V689.333V690.333H1738.96V689.333ZM1718.86 689.333V688.333H1708.81V689.333V690.333H1718.86V689.333ZM1698.76 689.333V688.333H1688.71V689.333V690.333H1698.76V689.333ZM1678.66 689.333V688.333H1668.61V689.333V690.333H1678.66V689.333ZM1658.56 689.333V688.333H1648.51V689.333V690.333H1658.56V689.333ZM1638.46 689.333V688.333H1628.41V689.333V690.333H1638.46V689.333ZM1618.36 689.333V688.333H1608.31V689.333V690.333H1618.36V689.333ZM1598.26 689.333V688.333H1588.21V689.333V690.333H1598.26V689.333ZM1578.16 689.333V688.333H1568.11V689.333V690.333H1578.16V689.333ZM1558.06 689.333V688.333H1548.01V689.333V690.333H1558.06V689.333ZM1537.96 689.333V688.333H1527.91V689.333V690.333H1537.96V689.333ZM1517.86 689.333V688.333H1507.81V689.333V690.333H1517.86V689.333ZM1497.76 689.333V688.333H1487.71V689.333V690.333H1497.76V689.333ZM1477.66 689.333V688.333H1467.61V689.333V690.333H1477.66V689.333ZM1457.56 689.333V688.333H1447.51V689.333V690.333H1457.56V689.333ZM1437.46 689.333V688.333H1427.41V689.333V690.333H1437.46V689.333ZM1417.36 689.333V688.333H1407.31V689.333V690.333H1417.36V689.333ZM1397.26 689.333V688.333H1387.21V689.333V690.333H1397.26V689.333ZM1377.16 689.333V688.333H1367.11V689.333V690.333H1377.16V689.333ZM1357.06 689.333V688.333H1347.01V689.333V690.333H1357.06V689.333ZM1336.96 689.333V688.333H1326.91V689.333V690.333H1336.96V689.333ZM1316.86 689.333V688.333H1306.81V689.333V690.333H1316.86V689.333ZM1296.76 689.333V688.333H1286.71V689.333V690.333H1296.76V689.333ZM1276.66 689.333V688.333H1266.61V689.333V690.333H1276.66V689.333ZM1256.56 689.333V688.333H1246.51V689.333V690.333H1256.56V689.333ZM1236.46 689.333V688.333H1226.41V689.333V690.333H1236.46V689.333ZM1216.36 689.333V688.333H1206.31V689.333V690.333H1216.36V689.333ZM1196.26 689.333V688.333H1186.21V689.333V690.333H1196.26V689.333ZM1176.16 689.333V688.333H1166.11V689.333V690.333H1176.16V689.333ZM1156.06 689.333V688.333H1146.01V689.333V690.333H1156.06V689.333ZM1135.96 689.333V688.333H1125.91V689.333V690.333H1135.96V689.333ZM1115.86 689.333V688.333H1105.81V689.333V690.333H1115.86V689.333ZM1095.76 689.333V688.333H1085.71V689.333V690.333H1095.76V689.333ZM1075.66 689.333V688.333H1065.61V689.333V690.333H1075.66V689.333ZM1055.56 689.333V688.333H1045.51V689.333V690.333H1055.56V689.333ZM1035.46 689.333V688.333H1025.41V689.333V690.333H1035.46V689.333ZM1015.36 689.333V688.333H1005.31V689.333V690.333H1015.36V689.333ZM995.259 689.333V688.333H985.209V689.333V690.333H995.259V689.333ZM975.159 689.333V688.333H965.109V689.333V690.333H975.159V689.333ZM955.059 689.333V688.333H945.009V689.333V690.333H955.059V689.333ZM934.959 689.333V688.333H924.909V689.333V690.333H934.959V689.333ZM914.859 689.333V688.333H904.809V689.333V690.333H914.859V689.333ZM894.759 689.333V688.333H884.709V689.333V690.333H894.759V689.333ZM874.659 689.333V688.333H864.609V689.333V690.333H874.659V689.333ZM854.559 689.333V688.333H844.509V689.333V690.333H854.559V689.333ZM834.459 689.333V688.333H824.409V689.333V690.333H834.459V689.333ZM814.359 689.333V688.333H804.309V689.333V690.333H814.359V689.333ZM794.259 689.333V688.333H784.209V689.333V690.333H794.259V689.333ZM774.159 689.333V688.333H764.109V689.333V690.333H774.159V689.333ZM754.059 689.333V688.333H744.009V689.333V690.333H754.059V689.333ZM733.959 689.333V688.333H723.909V689.333V690.333H733.959V689.333ZM713.859 689.333V688.333H703.809V689.333V690.333H713.859V689.333ZM693.759 689.333V688.333H683.709V689.333V690.333H693.759V689.333ZM673.659 689.333V688.333H663.609V689.333V690.333H673.659V689.333ZM653.559 689.333V688.333H643.509V689.333V690.333H653.559V689.333ZM633.458 689.333V688.333H623.408V689.333V690.333H633.458V689.333ZM613.358 689.333V688.333H603.308V689.333V690.333H613.358V689.333ZM593.258 689.333V688.333H583.208V689.333V690.333H593.258V689.333ZM573.158 689.333V688.333H563.108V689.333V690.333H573.158V689.333ZM553.058 689.333V688.333H543.008V689.333V690.333H553.058V689.333ZM532.958 689.333V688.333H522.908V689.333V690.333H532.958V689.333ZM512.858 689.333V688.333H502.808V689.333V690.333H512.858V689.333ZM492.758 689.333V688.333H482.708V689.333V690.333H492.758V689.333ZM472.658 689.333V688.333H462.608V689.333V690.333H472.658V689.333ZM452.558 689.333V688.333H442.508V689.333V690.333H452.558V689.333ZM432.457 689.333V688.333H422.407V689.333V690.333H432.457V689.333ZM412.357 689.333V688.333H402.307V689.333V690.333H412.357V689.333ZM392.257 689.333V688.333H382.207V689.333V690.333H392.257V689.333ZM372.157 689.333V688.333H362.107V689.333V690.333H372.157V689.333ZM352.057 689.333V688.333H342.007V689.333V690.333H352.057V689.333ZM331.957 689.333V688.333H321.907V689.333V690.333H331.957V689.333ZM311.857 689.333V688.333H301.807V689.333V690.333H311.857V689.333ZM291.757 689.333V688.333H281.707V689.333V690.333H291.757V689.333ZM271.657 689.333V688.333H261.607V689.333V690.333H271.657V689.333ZM251.557 689.333V688.333H241.507V689.333V690.333H251.557V689.333ZM231.457 689.333V688.333H221.407V689.333V690.333H231.457V689.333ZM211.356 689.333V688.333H201.306V689.333V690.333H211.356V689.333ZM191.256 689.333V688.333H181.206V689.333V690.333H191.256V689.333ZM171.156 689.333V688.333H161.106V689.333V690.333H171.156V689.333ZM151.056 689.333V688.333H141.006V689.333V690.333H151.056V689.333ZM130.956 689.333V688.333H120.906V689.333V690.333H130.956V689.333ZM110.856 689.333V688.333H100.806V689.333V690.333H110.856V689.333ZM90.7558 689.333V688.333H80.7058V689.333V690.333H90.7558V689.333ZM70.6558 689.333V688.333H60.6057V689.333V690.333H70.6558V689.333ZM50.5556 689.333V688.333H40.5056V689.333V690.333H50.5556V689.333ZM30.4556 689.333V688.333H20.4056V689.333V690.333H30.4556V689.333ZM10.3554 689.333V688.333H5.33337V689.333V690.333H10.3554V689.333Z" fill="var(--stroke-0, #7BF12C)"/>
</g>
</svg>
