<svg preserveAspectRatio="none" width="100%" height="100%" overflow="visible" style="display: block;" viewBox="0 0 821 253.172" fill="none" xmlns="http://www.w3.org/2000/svg">
<path id="Union" d="M93.4434 0.171875C121.389 0.171935 148.06 11.8662 166.994 32.4209L223.319 93.5684C241.874 113.712 268.013 125.172 295.4 125.172H403V127.172H295.635C268.112 127.172 241.857 138.745 223.291 159.062L167.028 220.631C148.083 241.362 121.293 253.172 93.209 253.172H0V251.172H93.209C120.731 251.172 146.985 239.598 165.552 219.281L221.814 157.713C237.529 140.516 258.642 129.458 281.414 126.188C258.686 122.978 237.592 112.014 221.849 94.9229L165.523 33.7754C146.968 13.6319 120.83 2.17193 93.4434 2.17188H0V0.171875H93.4434ZM821 2.00098H730.864C703.136 2.00099 676.706 13.7474 658.125 34.3281L604.236 94.0146C588.43 111.521 567.057 122.761 543.992 126.017C567.1 129.335 588.49 140.67 604.266 158.282L658.1 218.386C676.69 239.14 703.236 251.001 731.099 251.001H821V253.001H731.099C702.667 253.001 675.58 240.898 656.61 219.72L602.776 159.616C584.186 138.861 557.64 127.001 529.777 127.001H426V125.001H530.012C557.739 125.001 584.17 113.254 602.751 92.6738L656.64 32.9873C675.6 11.9866 702.571 1.7238e-05 730.864 0H821V2.00098Z" fill="var(--fill-0, #7BF12C)"/>
</svg>
